<svg width="36" height="36" viewBox="0 0 36 36" fill="none" xmlns="http://www.w3.org/2000/svg">
<path d="M27.1037 30.4858H14.5986V33.346H27.1037V30.4858Z" fill="#CCCCCC"/>
<path d="M18.0209 30.4858H14.5986V33.346H18.0209V30.4858Z" fill="#B3B3B3"/>
<path d="M33.6795 17.4102H35.3417C35.3417 23.1743 31.9761 28.1513 27.1036 30.4857H14.5985C9.72599 28.1513 6.36035 23.1743 6.36035 17.4102H8.02343H16.1843H25.5177H33.6795V17.4102Z" fill="#E6E6E6"/>
<path d="M14.1269 17.4102H8.02343H6.36035C6.36035 23.1743 9.726 28.1513 14.5985 30.4857H22.365C17.4925 28.1514 14.1269 23.1744 14.1269 17.4102Z" fill="#CCCCCC"/>
<path d="M30.2316 12.4771C30.4246 12.7194 30.4703 13.0555 30.4694 13.4232C30.1886 13.3626 29.8981 13.3302 29.5988 13.3302C28.07 13.3302 26.7369 14.1709 26.0383 15.4154L14.8821 14.421C14.5451 14.1077 14.1546 13.8506 13.7263 13.6654L27.5654 11.5381C28.2315 12.0699 29.6997 11.811 30.2316 12.4771Z" fill="#90BC42"/>
<path d="M14.8821 14.4209L26.0383 15.4152C25.7066 16.005 25.5179 16.6851 25.5179 17.41H16.1845C16.1845 16.2297 15.6833 15.166 14.8821 14.4209Z" fill="#9AD14B"/>
<path d="M27.5654 11.5386L13.7263 13.6659C13.2296 13.45 12.6811 13.3307 12.1045 13.3307C11.8631 13.3307 11.6262 13.3517 11.3963 13.3921L11.2383 13.2341C11.2532 12.941 11.312 12.6768 11.4717 12.4776C12.0036 11.8115 13.4718 12.0704 14.1379 11.5386C14.8005 11.0094 14.8734 9.51919 15.6448 9.14708C16.4039 8.78111 17.6133 9.64907 18.454 9.45775C19.2693 9.27258 19.9811 7.96143 20.8516 7.96143C21.7222 7.96143 22.4349 9.27258 23.2493 9.45775C24.09 9.64907 25.2994 8.78111 26.0585 9.14708C26.8299 9.51919 26.9028 11.0094 27.5654 11.5386Z" fill="#9AD14B"/>
<path d="M14.8822 14.421C15.6835 15.166 16.1846 16.2297 16.1846 17.4101H8.02368C8.02368 15.4557 9.39802 13.8215 11.234 13.4231C11.2875 13.4117 11.3419 13.4012 11.3963 13.3915C11.6263 13.3511 11.8632 13.3301 12.1046 13.3301C12.6812 13.3301 13.2297 13.4494 13.7264 13.6653C14.1547 13.8505 14.5452 14.1076 14.8822 14.421Z" fill="#F95428"/>
<path d="M26.0385 15.4153C26.7371 14.1708 28.0702 13.3301 29.599 13.3301C29.8982 13.3301 30.1887 13.3625 30.4696 13.4231C32.3055 13.8215 33.6799 15.4557 33.6799 17.4101H25.5181C25.5181 16.6852 25.7068 16.005 26.0385 15.4153Z" fill="#F95428"/>
<path d="M7.91123 6.86767C8.7002 7.65576 8.7002 8.93357 7.91123 9.72166L7.81908 9.81469L7.72605 9.90772C6.93796 10.6958 5.66015 10.6958 4.87118 9.90772L1.24927 6.28493C0.461179 5.49684 0.461179 4.21903 1.24927 3.43093L1.43445 3.24488C2.22342 2.45678 3.50123 2.45678 4.28932 3.24488L7.91123 6.86767Z" fill="#F7B239"/>
<path d="M31.6613 18.0684C31.2978 18.0684 31.0031 17.7738 31.0031 17.4102C31.0031 16.7541 30.5399 16.1775 29.9017 16.039C29.8031 16.0177 29.7009 16.0069 29.5989 16.0069C29.2354 16.0069 28.9407 15.7122 28.9407 15.3486C28.9407 14.985 29.2354 14.6904 29.5989 14.6904C29.7941 14.6904 29.9896 14.7112 30.1801 14.7524C31.4201 15.0215 32.3195 16.1392 32.3195 17.4102C32.3195 17.7738 32.0248 18.0684 31.6613 18.0684Z" fill="white"/>
<path d="M14.0651 18.0684C13.7016 18.0684 13.4069 17.7738 13.4069 17.4102C13.4069 16.7541 12.9438 16.1775 12.3056 16.039C12.2069 16.0177 12.1047 16.0069 12.0027 16.0069C11.6392 16.0069 11.3445 15.7122 11.3445 15.3486C11.3445 14.985 11.6392 14.6904 12.0027 14.6904C12.1979 14.6904 12.3934 14.7112 12.5839 14.7524C13.8239 15.0215 14.7233 16.1392 14.7233 17.4102C14.7233 17.7738 14.4286 18.0684 14.0651 18.0684Z" fill="white"/>
<path d="M8.35969 9.0406C8.26139 9.28896 8.1122 9.52065 7.91123 9.72162L7.81908 9.81465L7.72605 9.90768C6.93796 10.6958 5.66015 10.6958 4.87118 9.90768L1.24927 6.28489C0.461179 5.4968 0.461179 4.219 1.24927 3.4309L1.43445 3.24485C1.63542 3.04387 1.86887 2.8938 2.11723 2.79639C1.8285 3.52217 1.97857 4.38135 2.56569 4.96848L6.1876 8.59126C6.7756 9.17847 7.6339 9.32854 8.35969 9.0406Z" fill="#E09B2D"/>
<path d="M26.2318 29.324C25.9864 29.324 25.7509 29.1861 25.6378 28.95C25.4807 28.6222 25.6192 28.2291 25.947 28.072C27.9291 27.1223 29.6067 25.6406 30.7981 23.787C31.2842 23.0309 31.683 22.2188 31.9838 21.3734C32.1057 21.0309 32.4824 20.852 32.8245 20.9738C33.1671 21.0956 33.3459 21.472 33.2241 21.8145C32.8897 22.7548 32.446 23.658 31.9056 24.4988C30.5821 26.5578 28.7183 28.204 26.5158 29.2591C26.424 29.3032 26.3272 29.324 26.2318 29.324Z" fill="white"/>
<path d="M25.2503 32.5176C25.6138 32.5176 25.9085 32.2229 25.9085 31.8594C25.9085 31.4959 25.6138 31.2012 25.2503 31.2012C24.8867 31.2012 24.592 31.4959 24.592 31.8594C24.592 32.2229 24.8867 32.5176 25.2503 32.5176Z" fill="white"/>
<path d="M33.1604 20.0869C33.5239 20.0869 33.8186 19.7922 33.8186 19.4287C33.8186 19.0652 33.5239 18.7705 33.1604 18.7705C32.7969 18.7705 32.5022 19.0652 32.5022 19.4287C32.5022 19.7922 32.7969 20.0869 33.1604 20.0869Z" fill="white"/>
<path d="M35.3418 16.7525H34.2908C34.0397 14.9535 32.7754 13.4758 31.0945 12.915C31.0514 12.6284 30.955 12.3291 30.7456 12.0663C30.3003 11.5087 29.5734 11.3912 28.9321 11.2877C28.5644 11.2283 28.1477 11.1609 27.9758 11.0237C27.8063 10.8884 27.6492 10.4989 27.5106 10.1552C27.2667 9.55062 26.9903 8.86538 26.3441 8.55365C25.7077 8.24701 25.0058 8.45466 24.3866 8.6379C24.0258 8.74479 23.6167 8.86599 23.3949 8.81535C23.1926 8.76937 22.8868 8.49134 22.617 8.24596C22.1307 7.80382 21.5797 7.30261 20.8514 7.30261C20.1232 7.30261 19.5724 7.80364 19.0864 8.24561C18.8165 8.49108 18.5107 8.76928 18.3076 8.81535C18.0861 8.86599 17.6769 8.74471 17.316 8.6379C16.6967 8.45457 15.995 8.24692 15.3585 8.55365C14.7122 8.86538 14.4358 9.55062 14.192 10.1553C14.0534 10.4989 13.8962 10.8884 13.7269 11.0237C13.555 11.1609 13.1382 11.2283 12.7705 11.2878C12.139 11.3897 11.4251 11.506 10.9779 12.0425L8.71284 9.77748C9.40493 8.73812 9.29312 7.31788 8.37707 6.40183L4.7549 2.77975C4.2494 2.27407 3.57723 1.99561 2.86224 1.99561C2.14725 1.99561 1.47509 2.27407 0.969498 2.77966L0.783971 2.96519C0.278379 3.47078 0 4.14295 0 4.85785C0 5.57284 0.278379 6.24509 0.783971 6.7506L4.40605 10.3727C4.92788 10.8944 5.61329 11.1553 6.29871 11.1553C6.81668 11.1553 7.33447 11.0061 7.78179 10.7082L10.1628 13.0892C8.70688 13.7459 7.64032 15.1163 7.41187 16.7524H6.36093C5.99743 16.7524 5.70272 17.047 5.70272 17.4106C5.70272 20.3228 6.53128 23.1511 8.09887 25.5901C9.54938 27.847 11.5632 29.6737 13.9404 30.8941V33.3455C13.9404 33.7091 14.2351 34.0037 14.5986 34.0037H27.104C27.4675 34.0037 27.7622 33.7091 27.7622 33.3455V30.8941C30.1395 29.6738 32.1532 27.847 33.6038 25.5901C35.1714 23.1511 35.9999 20.3227 35.9999 17.4106C36 17.0472 35.7053 16.7525 35.3418 16.7525ZM32.957 16.7525H26.2403C26.5481 15.1792 27.9366 13.9882 29.5986 13.9882C31.2606 13.9882 32.6492 15.1793 32.957 16.7525ZM16.7962 16.7525C16.7193 16.202 16.5477 15.6818 16.2982 15.2085L25.0774 15.9904C24.9999 16.2364 24.9429 16.4912 24.9065 16.7526H16.7962V16.7525ZM28.722 12.5872C28.894 12.615 29.0844 12.6459 29.2543 12.6856C27.7809 12.792 26.4923 13.5742 25.698 14.7239L16.4995 13.9047L27.4195 12.2263C27.8194 12.4414 28.2939 12.5181 28.722 12.5872ZM12.9803 12.5872C13.508 12.5019 14.106 12.4054 14.5483 12.0523C14.9877 11.7013 15.2038 11.1656 15.4127 10.6477C15.5597 10.2833 15.7426 9.82996 15.9302 9.73939C16.1087 9.65347 16.5708 9.79012 16.9422 9.90017C17.4578 10.0528 18.0419 10.2257 18.5993 10.099C19.14 9.97626 19.5629 9.59151 19.972 9.21949C20.2661 8.952 20.6321 8.61903 20.8512 8.61903C21.0704 8.61903 21.4368 8.95226 21.7312 9.21993C22.14 9.59178 22.5629 9.97626 23.1028 10.0991C23.6602 10.2258 24.2446 10.0529 24.7602 9.90026C25.1316 9.7902 25.5937 9.65356 25.7721 9.73939C25.9598 9.82987 26.1427 10.2833 26.2897 10.6477C26.3428 10.7794 26.3964 10.9122 26.454 11.0429L13.8019 12.9875C13.3766 12.8237 12.922 12.7199 12.4483 12.6857C12.618 12.6459 12.8085 12.6151 12.9803 12.5872ZM5.33693 9.44188L1.71485 5.81971C1.45789 5.56284 1.31642 5.22127 1.31642 4.85785C1.31642 4.49452 1.45789 4.15295 1.71485 3.89607L1.90029 3.71063C2.15726 3.45367 2.49882 3.31211 2.86216 3.31211C3.22549 3.31211 3.56705 3.45367 3.82402 3.71063L7.4461 7.33263C7.97644 7.86297 7.97644 8.72601 7.4461 9.25635L7.26066 9.44179C6.73023 9.97231 5.86728 9.97231 5.33693 9.44188ZM12.104 13.9882C13.766 13.9882 15.1545 15.1792 15.4623 16.7525H8.74576C9.05353 15.1793 10.442 13.9882 12.104 13.9882ZM15.2568 32.6874V31.1443H26.4458V32.6874H15.2568ZM32.4964 24.8785C31.1286 27.0066 29.2119 28.7143 26.9487 29.8278H14.754C12.4908 28.7144 10.5741 27.0067 9.20633 24.8785C7.89377 22.8363 7.14885 20.4948 7.03459 18.0689H34.668C34.5539 20.4948 33.8089 22.8364 32.4964 24.8785Z" fill="#333333"/>
</svg>
