<svg width="36" height="36" viewBox="0 0 36 36" fill="none" xmlns="http://www.w3.org/2000/svg">
<path d="M17.9601 8.12494C13.8444 8.12494 10.5076 4.78808 10.5076 0.672363C12.5654 0.672363 14.4288 1.5068 15.7777 2.8557C17.1257 4.20371 17.9601 6.06699 17.9601 8.12494Z" fill="#9AD14B"/>
<path d="M20.5386 9.99219C27.9436 9.99219 33.1035 17.3426 30.5877 24.3076L28.3004 30.6362C28.1112 31.1596 27.8666 31.6526 27.5744 32.1079C27.1746 32.729 26.6853 33.282 26.1287 33.7499H26.1278C25.6241 34.1738 25.0648 34.5279 24.4652 34.8039C23.0652 35.4457 21.4635 35.486 20.0133 34.9724C19.6701 34.8514 19.3196 34.7627 18.9647 34.7044C18.6456 34.6524 18.3221 34.6273 18.0003 34.6273C17.3191 34.6273 16.6388 34.7421 15.9873 34.9724C15.5042 35.1427 15.0058 35.253 14.503 35.2996C13.4938 35.3928 12.4694 35.2323 11.5354 34.8039C9.78679 34.0017 8.38231 32.5247 7.69935 30.6362L5.41294 24.3076C2.89618 17.3426 8.05607 9.99219 15.4611 9.99219H18.0003H20.5386V9.99219Z" fill="#F95428"/>
<path d="M13.7941 30.6358L11.5077 24.3072C9.04897 17.5029 13.9171 10.3322 21.0472 10.0047C20.8788 9.99699 20.7095 9.9917 20.5386 9.9917H18.0003H15.4611C8.05607 9.9917 2.89618 17.3421 5.41294 24.3071L7.69935 30.6357C8.38232 32.5242 9.78679 34.0013 11.5354 34.8034C12.4694 35.2319 13.4938 35.3923 14.503 35.2991C15.0058 35.2525 15.5042 35.1422 15.9873 34.9719C16.4293 34.8157 16.8847 34.714 17.3445 34.6638C15.7292 33.8363 14.4394 32.4201 13.7941 30.6358Z" fill="#E54728"/>
<path d="M25.8403 31.6642C25.716 31.6642 25.5903 31.6298 25.478 31.5577C25.1655 31.3572 25.0747 30.9414 25.2752 30.629C25.4592 30.3423 25.612 30.0321 25.7295 29.7069L28.0169 23.378C28.9092 20.9078 28.5553 18.258 27.046 16.1081C26.3946 15.1802 25.5858 14.4209 24.6419 13.851C24.3241 13.6591 24.222 13.246 24.4139 12.9281C24.6058 12.6103 25.019 12.5081 25.3368 12.7001C26.4416 13.367 27.3869 14.2537 28.1463 15.3355C29.9108 17.849 30.3244 20.9468 29.2813 23.8349L26.9939 30.1639C26.8424 30.5832 26.6448 30.984 26.4067 31.3549C26.2784 31.5551 26.0616 31.6642 25.8403 31.6642ZM22.6138 12.9709C22.2426 12.9709 21.9412 12.6699 21.9412 12.2987C21.9412 11.9274 22.2417 11.6265 22.6129 11.6265H22.6138C22.9852 11.6265 23.286 11.9274 23.286 12.2987C23.286 12.6699 22.9851 12.9709 22.6138 12.9709Z" fill="white"/>
<path d="M17.9601 8.12494C13.8444 8.12494 10.5076 4.78808 10.5076 0.672363L17.9601 8.12494Z" fill="#90BC42"/>
<path d="M29.8338 14.1519C27.6782 11.0812 24.29 9.32006 20.5382 9.32006H18.6722V9.27229C18.6722 7.33408 19.6325 5.52835 21.2409 4.4417C21.5486 4.23385 21.6294 3.816 21.4217 3.5084C21.2139 3.2008 20.796 3.11995 20.4883 3.32762C19.5596 3.95502 18.8067 4.77726 18.2689 5.71988C17.2412 2.41028 14.1505 0 10.5073 0C10.136 0 9.83508 0.300971 9.83508 0.67221C9.83508 4.94568 13.1514 8.45901 17.3456 8.77414C17.3342 8.93932 17.3278 9.10531 17.3278 9.27238V9.32015H15.4609C11.7096 9.32015 8.3218 11.0812 6.16633 14.1517C4.01078 17.2224 3.50563 21.0072 4.78041 24.5357L7.06745 30.8646C7.80204 32.8973 9.28915 34.5132 11.2548 35.4145C12.2767 35.8832 13.4214 36.0744 14.5647 35.9682C15.1218 35.9166 15.6756 35.7948 16.2108 35.6059C16.7874 35.4024 17.3894 35.2991 18 35.2991C18.2883 35.2991 18.5765 35.3221 18.8561 35.3676C19.1761 35.4198 19.4899 35.5 19.7886 35.6056C20.5318 35.8688 21.2969 35.9998 22.0544 35.9998C22.9807 35.9998 23.8958 35.8039 24.7457 35.4141C25.3939 35.1161 25.9972 34.7352 26.5393 34.2815C26.5467 34.2758 26.5539 34.27 26.561 34.264C27.1758 33.7471 27.7069 33.1436 28.1395 32.4706C28.4625 31.9681 28.7294 31.4276 28.9326 30.8645L31.2196 24.5356C32.4944 21.0072 31.9892 17.2226 29.8338 14.1519ZM13.1655 5.46686C12.0534 4.35476 11.3752 2.92438 11.2159 1.38126C14.3902 1.71225 16.9202 4.2421 17.2511 7.41654C15.7079 7.25718 14.2775 6.57888 13.1655 5.46686ZM29.9552 24.0788L27.6681 30.408C27.499 30.8766 27.2771 31.3261 27.0085 31.7438C26.6535 32.2962 26.2185 32.7923 25.7154 33.2186C25.7082 33.2241 25.7011 33.2298 25.6942 33.2357C25.2391 33.6194 24.731 33.9414 24.1847 34.1926C22.9599 34.7544 21.5579 34.8062 20.2372 34.3385C19.8632 34.2062 19.4713 34.1061 19.0721 34.0409C18.7211 33.9838 18.3603 33.955 18 33.955C17.2366 33.955 16.484 34.0839 15.7633 34.3384C15.3326 34.4903 14.8876 34.5884 14.4403 34.6297C13.531 34.7143 12.6232 34.5633 11.8151 34.1927C10.1799 33.4428 8.94283 32.0987 8.33175 30.4078L6.04471 24.0789C4.92077 20.9681 5.36622 17.6314 7.26652 14.9241C9.16681 12.2171 12.1535 10.6646 15.4608 10.6646H20.538C23.8458 10.6646 26.8329 12.2172 28.7332 14.9244C30.6337 17.6315 31.0791 20.9681 29.9552 24.0788Z" fill="#333333"/>
</svg>
