<svg width="24" height="24" viewBox="0 0 24 24" fill="none" xmlns="http://www.w3.org/2000/svg">
<path d="M6.08577 23.9151C4.65848 23.8502 3.88314 23.6127 3.36743 23.4115C2.6841 23.1455 2.19693 22.8288 1.68407 22.3166C1.17122 21.8045 0.853806 21.3173 0.589176 20.634C0.388029 20.1183 0.150504 19.3429 0.0855946 17.9157C0.0142658 16.3728 0 15.9099 0 12.0011C0 8.09225 0.0156923 7.63004 0.0848813 6.08577C0.14979 4.65848 0.388742 3.88457 0.588463 3.36743C0.854519 2.6841 1.17193 2.19693 1.68336 1.68336C2.1955 1.17122 2.68268 0.853092 3.36672 0.588463C3.88243 0.387315 4.65777 0.14979 6.08506 0.0848813C7.62861 0.0142658 8.09225 0 11.9996 0C15.9085 0 16.3707 0.0156923 17.9149 0.0848813C19.3422 0.14979 20.1161 0.388742 20.6333 0.588463C21.3166 0.853092 21.8038 1.17122 22.3166 1.68336C22.8295 2.1955 23.1455 2.68339 23.4115 3.36672C23.6127 3.88243 23.8502 4.65777 23.9151 6.08506C23.9857 7.62933 24 8.09154 24 12.0004C24 15.9077 23.9857 16.3714 23.9151 17.9157C23.8502 19.3429 23.6113 20.1183 23.4115 20.634C23.1455 21.3173 22.8288 21.8045 22.3166 22.3166C21.8045 22.8288 21.3166 23.1455 20.6333 23.4115C20.1176 23.6127 19.3422 23.8502 17.9149 23.9151C16.3721 23.9857 15.9085 24 11.9996 24C8.09225 24 7.62862 23.9864 6.08577 23.9151" fill="url(#paint0_radial)"/>
<path d="M6.08577 23.9151C4.65848 23.8502 3.88314 23.6127 3.36743 23.4115C2.6841 23.1455 2.19693 22.8288 1.68407 22.3166C1.17122 21.8045 0.853806 21.3173 0.589176 20.634C0.388029 20.1183 0.150504 19.3429 0.0855946 17.9157C0.0142658 16.3728 0 15.9099 0 12.0011C0 8.09225 0.0156923 7.63004 0.0848813 6.08577C0.14979 4.65848 0.388742 3.88457 0.588463 3.36743C0.854519 2.6841 1.17193 2.19693 1.68336 1.68336C2.1955 1.17122 2.68268 0.853092 3.36672 0.588463C3.88243 0.387315 4.65777 0.14979 6.08506 0.0848813C7.62861 0.0142658 8.09225 0 11.9996 0C15.9085 0 16.3707 0.0156923 17.9149 0.0848813C19.3422 0.14979 20.1161 0.388742 20.6333 0.588463C21.3166 0.853092 21.8038 1.17122 22.3166 1.68336C22.8295 2.1955 23.1455 2.68339 23.4115 3.36672C23.6127 3.88243 23.8502 4.65777 23.9151 6.08506C23.9857 7.62933 24 8.09154 24 12.0004C24 15.9077 23.9857 16.3714 23.9151 17.9157C23.8502 19.3429 23.6113 20.1183 23.4115 20.634C23.1455 21.3173 22.8288 21.8045 22.3166 22.3166C21.8045 22.8288 21.3166 23.1455 20.6333 23.4115C20.1176 23.6127 19.3422 23.8502 17.9149 23.9151C16.3721 23.9857 15.9085 24 11.9996 24C8.09225 24 7.62862 23.9864 6.08577 23.9151" fill="url(#paint1_radial)"/>
<path d="M9.05366 12.0512C9.05366 10.4099 10.3839 9.07896 12.0252 9.07896C13.6666 9.07896 14.9975 10.4099 14.9975 12.0512C14.9975 13.6926 13.6666 15.0235 12.0252 15.0235C10.3839 15.0235 9.05366 13.6926 9.05366 12.0512V12.0512ZM7.44691 12.0512C7.44691 14.5798 9.49661 16.6295 12.0252 16.6295C14.5538 16.6295 16.6035 14.5798 16.6035 12.0512C16.6035 9.52263 14.5538 7.47292 12.0252 7.47292C9.49661 7.47292 7.44698 9.52248 7.44698 12.0512H7.44691ZM15.7149 7.29139C15.7148 7.503 15.7775 7.70989 15.895 7.88588C16.0125 8.06188 16.1795 8.19908 16.375 8.28014C16.5705 8.3612 16.7856 8.38247 16.9931 8.34127C17.2007 8.30007 17.3914 8.19825 17.5411 8.04868C17.6908 7.8991 17.7928 7.7085 17.8341 7.50097C17.8755 7.29344 17.8544 7.0783 17.7735 6.88277C17.6926 6.68723 17.5555 6.52008 17.3796 6.40244C17.2037 6.2848 16.9969 6.22197 16.7853 6.22189H16.7848C16.5012 6.22202 16.2292 6.33473 16.0286 6.53526C15.828 6.73579 15.7152 7.00774 15.7149 7.29139V7.29139ZM8.42312 19.3088C7.55383 19.2692 7.08135 19.1244 6.76736 19.0021C6.35109 18.84 6.05408 18.647 5.7418 18.3352C5.42952 18.0233 5.23622 17.7266 5.07488 17.3103C4.95248 16.9965 4.80768 16.5238 4.76816 15.6545C4.72494 14.7147 4.71631 14.4324 4.71631 12.0514C4.71631 9.67035 4.72565 9.38881 4.76816 8.4482C4.80775 7.57892 4.95362 7.10722 5.07488 6.79244C5.23694 6.37617 5.42995 6.07916 5.7418 5.76688C6.05365 5.4546 6.35038 5.2613 6.76736 5.09995C7.08121 4.97755 7.55383 4.83276 8.42312 4.79324C9.36294 4.75002 9.64526 4.74139 12.0252 4.74139C14.4052 4.74139 14.6878 4.75059 15.6284 4.79338C16.4977 4.83297 16.9694 4.97884 17.2841 5.1001C17.7004 5.26144 17.9974 5.45517 18.3097 5.76702C18.622 6.07887 18.8146 6.37631 18.9766 6.79259C19.099 7.10643 19.2438 7.57906 19.2833 8.44834C19.3266 9.38896 19.3352 9.67049 19.3352 12.0515C19.3352 14.4325 19.3266 14.7141 19.2833 15.6547C19.2437 16.524 19.0982 16.9965 18.9766 17.3104C18.8146 17.7267 18.6215 18.0237 18.3097 18.3353C17.9978 18.6469 17.7004 18.8402 17.2841 19.0022C16.9703 19.1246 16.4977 19.2694 15.6284 19.3089C14.6886 19.3522 14.4062 19.3608 12.0252 19.3608C9.64419 19.3608 9.36266 19.3522 8.42312 19.3089V19.3088ZM8.34929 3.18913C7.40012 3.23235 6.75153 3.38286 6.18511 3.60326C5.59886 3.83087 5.10191 4.13623 4.60568 4.63168C4.10944 5.12713 3.80487 5.62415 3.57726 6.21111C3.35686 6.77789 3.20635 7.42613 3.16313 8.3753C3.11919 9.32597 3.10913 9.6299 3.10913 12.0512C3.10913 14.4726 3.11919 14.7765 3.16313 15.7272C3.20635 16.6764 3.35686 17.3246 3.57726 17.8913C3.80487 18.4776 4.10952 18.9755 4.60568 19.4708C5.10184 19.966 5.59815 20.2709 6.18511 20.4992C6.7526 20.7196 7.40012 20.8701 8.34929 20.9133C9.30046 20.9566 9.60389 20.9673 12.0252 20.9673C14.4465 20.9673 14.7505 20.9573 15.7011 20.9133C16.6504 20.8701 17.2985 20.7196 17.8653 20.4992C18.4516 20.2709 18.9485 19.9662 19.4448 19.4708C19.941 18.9753 20.2449 18.4776 20.4732 17.8913C20.6936 17.3246 20.8448 16.6763 20.8873 15.7272C20.9305 14.7758 20.9406 14.4726 20.9406 12.0512C20.9406 9.6299 20.9305 9.32597 20.8873 8.3753C20.8441 7.42606 20.6936 6.77754 20.4732 6.21111C20.2449 5.62486 19.9402 5.12792 19.4448 4.63168C18.9493 4.13545 18.4516 3.83087 17.866 3.60326C17.2985 3.38286 16.6503 3.23164 15.7019 3.18913C14.751 3.14569 14.4473 3.13513 12.0263 3.13513C9.60532 3.13513 9.30082 3.14519 8.34965 3.18913" fill="white"/>
<defs>
<radialGradient id="paint0_radial" cx="0" cy="0" r="1" gradientUnits="userSpaceOnUse" gradientTransform="translate(1.55326 23.4742) scale(30.4711)">
<stop offset="0.09" stop-color="#FA8F21"/>
<stop offset="0.78" stop-color="#D82D7E"/>
</radialGradient>
<radialGradient id="paint1_radial" cx="0" cy="0" r="1" gradientUnits="userSpaceOnUse" gradientTransform="translate(16.624 22.7036) scale(26.8148)">
<stop offset="0.64" stop-color="#8C3AAA" stop-opacity="0"/>
<stop offset="1" stop-color="#8C3AAA"/>
</radialGradient>
</defs>
</svg>
