<svg width="31" height="50" viewBox="0 0 31 50" fill="none" xmlns="http://www.w3.org/2000/svg">
<path d="M15.4538 19.9503C15.4538 19.1529 16.1441 17.6849 17.2096 16.1901C17.5184 15.7568 18.0885 15.1046 18.8476 14.3039C18.9546 14.191 19.0648 14.0758 19.178 13.9584C19.6861 13.4314 20.2315 12.8837 20.777 12.3481C20.9681 12.1605 21.1454 11.9879 21.3044 11.8343C21.3599 11.7806 21.4092 11.7332 21.4516 11.6926C21.4768 11.6684 21.494 11.6519 21.5026 11.6437C21.8298 11.3315 21.7883 10.8595 21.41 10.5896C21.0317 10.3196 20.4599 10.3538 20.1327 10.6659C20.13 10.6685 20.13 10.6685 20.1184 10.6796C20.107 10.6905 20.0936 10.7034 20.0782 10.7181C20.0346 10.76 19.9841 10.8086 19.9273 10.8635C19.7652 11.0201 19.5848 11.1957 19.3905 11.3864C18.8353 11.9316 18.2799 12.4892 17.7606 13.0279C17.6445 13.1484 17.5312 13.2668 17.4211 13.3829C16.616 14.2322 16.0085 14.9272 15.6485 15.4323C14.4318 17.1392 13.6426 18.8175 13.6426 19.9503C13.6426 20.363 14.048 20.6976 14.5482 20.6976C15.0483 20.6976 15.4538 20.363 15.4538 19.9503Z" fill="#F3F3F3"/>
<path d="M15.4538 19.9503C15.4538 19.1529 16.1441 17.6849 17.2096 16.1901C17.5184 15.7568 18.0885 15.1046 18.8476 14.3039C18.9546 14.191 19.0648 14.0758 19.178 13.9584C19.6861 13.4314 20.2315 12.8837 20.777 12.3481C20.9681 12.1605 21.1454 11.9879 21.3044 11.8343C21.3599 11.7806 21.4092 11.7332 21.4516 11.6926C21.4768 11.6684 21.494 11.6519 21.5026 11.6437C21.8298 11.3315 21.7883 10.8595 21.41 10.5896C21.0317 10.3196 20.4599 10.3538 20.1327 10.6659C20.13 10.6685 20.13 10.6685 20.1184 10.6796C20.107 10.6905 20.0936 10.7034 20.0782 10.7181C20.0346 10.76 19.9841 10.8086 19.9273 10.8635C19.7652 11.0201 19.5848 11.1957 19.3905 11.3864C18.8353 11.9316 18.2799 12.4892 17.7606 13.0279C17.6445 13.1484 17.5312 13.2668 17.4211 13.3829C16.616 14.2322 16.0085 14.9272 15.6485 15.4323C14.4318 17.1392 13.6426 18.8175 13.6426 19.9503C13.6426 20.363 14.048 20.6976 14.5482 20.6976C15.0483 20.6976 15.4538 20.363 15.4538 19.9503Z" stroke="black" stroke-width="3" stroke-linecap="round" stroke-linejoin="round"/>
<path d="M14.5482 42.1981C15.1752 42.1981 15.1752 43.7502 18.3099 43.7502C22.0716 43.7502 25.8333 40.1286 25.8333 36.5069C25.8333 32.8852 25.2063 32.3679 23.3255 29.781C21.4447 27.1941 21.4447 19.4333 17.056 19.4333C14.5482 19.4333 15.8021 19.9507 14.5482 19.9507C13.2943 19.9507 14.5482 19.4333 12.0404 19.4333C7.65181 19.4333 7.65181 27.1941 5.77097 29.781C3.89013 32.3679 3.26318 32.8852 3.26318 36.5069C3.26318 40.1286 7.02487 43.7502 10.7866 43.7502C13.9213 43.7502 13.9213 42.1981 14.5482 42.1981Z" fill="#F3F3F3"/>
<path d="M18.3099 43.7502C15.1752 43.7502 15.1752 42.1981 14.5482 42.1981C13.9213 42.1981 13.9213 43.7502 10.7866 43.7502C7.02487 43.7502 3.26318 40.1286 3.26318 36.5069C3.26318 32.8852 3.89013 32.3679 5.77097 29.781C7.65181 27.1941 7.65181 19.4333 12.0404 19.4333C14.5482 19.4333 13.2943 19.9507 14.5482 19.9507C15.8021 19.9507 14.5482 19.4333 17.056 19.4333C21.4447 19.4333 19.9221 26.391 21.8029 28.9779C23.6838 31.5648 25.8333 32.8852 25.8333 36.5069C25.8333 40.1286 22.0716 43.7502 18.3099 43.7502Z" stroke="#1E1717" stroke-width="3" stroke-linecap="round" stroke-linejoin="round"/>
<path d="M21.0123 10.3095C21.4197 10.36 21.7997 10.6736 21.8609 11.0098C21.9221 11.3461 21.6414 11.5777 21.2339 11.5272C20.8265 11.4767 20.4465 11.1632 20.3853 10.8269C20.3241 10.4907 20.6048 10.259 21.0123 10.3095Z" fill="#F3F3F3"/>
<path d="M21.0123 10.3095C21.4197 10.36 21.7997 10.6736 21.8609 11.0098C21.9221 11.3461 21.6414 11.5777 21.2339 11.5272C20.8265 11.4767 20.4465 11.1632 20.3853 10.8269C20.3241 10.4907 20.6048 10.259 21.0123 10.3095Z" stroke="black" stroke-width="3" stroke-linecap="round" stroke-linejoin="round"/>
<path d="M6.39778 3.3944C6.12602 3.61613 7.25983 4.49383 7.25983 5.01121C7.25983 5.52859 7.02473 7.01606 10.1595 9.60296C13.2942 12.1899 17.457 10.2025 19.5637 11.2198C19.6803 11.1075 19.7378 11.1096 19.9555 10.8964C17.5764 10.1696 17.9745 7.80445 14.9399 6.04597C11.9054 4.2875 9.92436 4.62318 8.67047 4.1058C7.41657 3.58842 6.66954 3.17267 6.39778 3.3944Z" fill="#F3F3F3"/>
<path d="M6.39778 3.3944C6.12602 3.61613 7.25983 4.49383 7.25983 5.01121C7.25983 5.52859 7.02473 7.01606 10.1595 9.60296C13.2942 12.1899 17.457 10.2025 19.5637 11.2198C19.6803 11.1075 19.7378 11.1096 19.9555 10.8964C17.5764 10.1696 17.9745 7.80445 14.9399 6.04597C11.9054 4.2875 9.92436 4.62318 8.67047 4.1058C7.41657 3.58842 6.66954 3.17267 6.39778 3.3944Z" stroke="black" stroke-width="3" stroke-linecap="round" stroke-linejoin="round"/>
</svg>
